<svg xmlns="http://www.w3.org/2000/svg" viewBox="0 0 64 64"><g id="Flat_ok" data-name="Flat ok"><polygon points="62 18.023 32 35.948 2 23.998 34 7.069 62 18.023" style="fill:#e5a961" id="id_122"></polygon><polygon points="32 35.948 32 58.852 2 45.906 2 23.998 15 29.177 20 31.168 32 35.948" style="fill:#d6914c" id="id_123"></polygon><polygon points="62 18.023 62 39.932 32 58.852 32 35.948 62 18.023" style="fill:#f8c985" id="id_124"></polygon><polygon points="49.34 13.074 20 31.168 19.99 31.168 15 29.177 44.31 11.102 46.89 12.108 49 12.935 49.34 13.074" style="fill: rgb(255, 92, 92);" id="id_125"></polygon><polygon points="20 31.168 20 37.94 15 35.948 15 29.177 20 31.168" style="fill: rgb(247, 89, 89);" id="id_126"></polygon><path d="M10,46a1,1,0,0,1-.372-.071l-5-2a1,1,0,0,1,.744-1.858l5,2A1,1,0,0,1,10,46Z" style="fill:#594a42" id="id_127"></path><path d="M10,42a1,1,0,0,1-.372-.071l-5-2a1,1,0,0,1,.744-1.858l5,2A1,1,0,0,1,10,42Z" style="fill:#594a42" id="id_128"></path></g></svg>