<svg width="27" height="27" viewBox="0 0 27 27" fill="none" xmlns="http://www.w3.org/2000/svg">
<ellipse cx="13.9167" cy="13.4766" rx="12.9278" ry="13" fill="white"/>
<g clip-path="url(#clip0_194_1518)">
<path d="M16.7895 8.28968C16.7895 8.20262 16.7551 8.11912 16.6939 8.05755C16.6327 7.99599 16.5496 7.9614 16.4631 7.9614H14.8308C14.0088 7.92023 13.2041 8.20787 12.5924 8.76148C11.9807 9.31509 11.6117 10.0897 11.5662 10.9159V12.6887H9.93388C9.8473 12.6887 9.76426 12.7233 9.70304 12.7848C9.64182 12.8464 9.60742 12.9299 9.60742 13.017V14.724C9.60742 14.8111 9.64182 14.8946 9.70304 14.9562C9.76426 15.0177 9.8473 15.0523 9.93388 15.0523H11.5662V19.4513C11.5662 19.5384 11.6006 19.6219 11.6618 19.6834C11.723 19.745 11.8061 19.7796 11.8926 19.7796H13.8514C13.938 19.7796 14.021 19.745 14.0822 19.6834C14.1435 19.6219 14.1778 19.5384 14.1778 19.4513V15.0523H15.8885C15.9611 15.0534 16.032 15.03 16.0899 14.986C16.1479 14.942 16.1896 14.8799 16.2084 14.8094L16.6785 13.1023C16.6915 13.0538 16.6933 13.0029 16.6836 12.9537C16.674 12.9044 16.6532 12.858 16.623 12.818C16.5927 12.778 16.5537 12.7456 16.509 12.7232C16.4643 12.7008 16.4151 12.689 16.3651 12.6887H14.1778V10.9159C14.1941 10.7534 14.27 10.6028 14.3907 10.4936C14.5114 10.3843 14.6683 10.3242 14.8308 10.325H16.4631C16.5496 10.325 16.6327 10.2905 16.6939 10.2289C16.7551 10.1673 16.7895 10.0838 16.7895 9.99676V8.28968Z" fill="#273A5A"/>
</g>
<defs>
<clipPath id="clip0_194_1518">
<rect width="15.67" height="15.7576" fill="white" transform="translate(5.68994 5.9917)"/>
</clipPath>
</defs>
</svg>
