<svg
   viewBox="0 0 122 43"
    fill="none"
     xmlns="http://www.w3.org/2000/svg"
     >
<path fillRule="evenodd" clip-rule="evenodd" d="M15.293 0.630371L0.363892 15.9656V42.3691L32.5947 42.3395L47.5642 27.1021L47.5786 1.19352V0.630371H15.293Z" fill="#FCB614"/>
<path fill-rule="evenodd" clip-rule="evenodd" d="M89.5398 20.2814L84.8273 29.3562V19.7531H78.6021V38.6293H84.404C84.7609 38.6293 85.0904 38.4328 85.2661 38.115L90.1634 29.0329V38.6293H96.3825V19.7531H90.4097C90.047 19.7531 89.7134 19.9556 89.5398 20.2814ZM87.3843 17.9768C84.2333 17.9768 81.6697 15.5297 81.6697 12.3801H85.5187C85.5187 13.5282 86.053 14.5456 87.3843 14.5456C88.7632 14.5456 89.2495 13.5282 89.2495 12.3801H93.0985C93.0985 15.5297 90.5349 17.9768 87.3843 17.9768ZM58.7003 19.7531H53.8519H47.5048H42.5797V25.3942H47.4582V38.6293H53.8218V25.3942H58.7003V19.7531ZM71.3632 38.6294H77.4097L70.7892 20.2916C70.6724 19.9679 70.3707 19.7532 70.0333 19.7532H64.0423C63.7046 19.7532 63.4032 19.9679 63.2861 20.2916L56.6656 38.6294H62.7121C62.8915 38.6294 63.0505 38.5113 63.1063 38.3372L63.7783 36.2425H70.297L70.969 38.3372C71.0248 38.5117 71.1838 38.6294 71.3632 38.6294ZM65.2397 31.5154L67.0375 25.91L68.8356 31.5154H65.2397ZM114.664 20.2229L110.252 27.8771L105.839 20.2229C105.672 19.9317 105.366 19.7531 105.035 19.7531H99.2217V38.6293H105.585V29.716L108.417 34.4806C108.507 34.6316 108.667 34.7241 108.839 34.7241H111.665C111.838 34.7241 111.999 34.6316 112.088 34.4806L114.918 29.716V38.6293H121.281V19.7531H115.468C115.137 19.7531 114.831 19.9317 114.664 20.2229ZM13.2408 19.745H19.3948V26.4739H24.4877V19.745H30.6417V38.6296H24.4877V31.9007H19.3948V38.6296H13.2408V19.745ZM4.11597 38.6295H10.6943V19.7448H4.11597V38.6295Z" fill="#221F20"/>
</svg>
