<svg width="114" height="28" viewBox="0 0 114 28" fill="none" xmlns="http://www.w3.org/2000/svg">
<path d="M3.32609 23.0234C2.45719 23.0234 1.62527 22.546 1.19082 21.7223C0.571498 20.5241 1.01519 19.0451 2.19837 18.418L5.13784 16.8454L3.38156 14.6082C2.54963 13.5505 2.72526 12.0153 3.76979 11.1729C4.81431 10.3304 6.33027 10.5083 7.16219 11.566L10.721 16.1153C11.1647 16.6863 11.3403 17.4258 11.1924 18.1372C11.0445 18.8486 10.5916 19.457 9.95376 19.794L4.44457 22.7426C4.08407 22.9391 3.70508 23.0234 3.32609 23.0234Z" fill="#1C5BFF"/>
<path d="M15.4167 16.8735C14.7049 16.8735 14.0024 16.5552 13.5218 15.9468L9.95372 11.3976C9.51003 10.8266 9.3344 10.0871 9.4823 9.37568C9.6302 8.66428 10.0831 8.05584 10.7209 7.71886L16.2301 4.77028C17.4133 4.14312 18.8738 4.59243 19.4931 5.79058C20.1124 6.98874 19.6688 8.4677 18.4856 9.09486L15.5461 10.6674L17.3024 12.9046C18.1343 13.9624 17.9587 15.4975 16.9142 16.3399C16.4797 16.705 15.9436 16.8735 15.4167 16.8735Z" fill="#FFD00B"/>
<path d="M33.4048 17.903C33.2292 18.8016 32.804 19.5318 32.1477 20.084C31.5006 20.6363 30.7426 20.9171 29.9107 20.9171C29.2082 20.9171 28.6628 20.7299 28.2838 20.3461C27.8956 19.9623 27.7107 19.4475 27.7107 18.7736C27.7107 18.6051 27.7477 18.3242 27.8124 17.9405C27.8864 17.538 28.0712 16.5457 28.3855 15.02C28.746 13.2134 29.0603 11.6221 29.3284 10.2274L29.3838 9.96525H26.9712L26.9343 10.1431C26.7956 10.8639 26.6477 11.5846 26.5091 12.3148C26.3704 13.0449 26.2502 13.6252 26.1578 14.0745C26.0654 14.5239 25.9637 14.9825 25.8713 15.4412C25.7788 15.9092 25.7049 16.2743 25.6586 16.5364C25.6124 16.7985 25.557 17.0606 25.5108 17.3227C25.4553 17.5941 25.4183 17.7907 25.3906 17.9311C25.3629 18.0715 25.3444 18.2213 25.3259 18.3617C25.3074 18.5115 25.2981 18.6331 25.2889 18.7267C25.2797 18.8204 25.2797 18.9233 25.2797 19.0169C25.2797 20.2525 25.7049 21.2728 26.546 22.0591C27.378 22.836 28.4595 23.2385 29.7536 23.2385C31.2418 23.2385 32.5544 22.7799 33.6451 21.8719C34.7359 20.9639 35.4291 19.7564 35.7157 18.2681L37.3888 9.94653H34.967L33.4048 17.903Z" fill="white"/>
<path d="M48.4164 12.8391H45.44L42.0661 16.6301H41.2804L42.7224 9.35693H40.393L37.6938 23.014H40.0232L40.8552 18.8111H41.9367L44.1274 23.014H46.7156L43.9703 17.7627L48.4164 12.8391Z" fill="white"/>
<path d="M54.7113 12.7827C53.5373 12.7827 52.5113 13.1478 51.6609 13.8779L51.6331 12.8295H49.9508L47.9449 23.0044H50.2743L51.3928 17.3788C51.5869 16.6112 51.9197 16.0215 52.3819 15.619C52.8441 15.2258 53.4541 15.0199 54.1936 15.0199H55.3861L55.8482 12.7827H54.7113Z" fill="white"/>
<path d="M65.0919 14.0372C64.7499 13.6347 64.3339 13.3165 63.844 13.0637C63.2339 12.7548 62.5406 12.5957 61.7734 12.5957C60.6827 12.5957 59.6566 12.8765 58.7138 13.4382C57.7802 13.9998 57.0315 14.758 56.4953 15.7034C55.9592 16.6488 55.6819 17.6879 55.6819 18.7737C55.6819 20.0561 56.0978 21.1232 56.9113 21.9656C57.7247 22.8081 58.797 23.2293 60.1003 23.2293C61.3759 23.2293 62.5406 22.8455 63.5667 22.0873L63.5205 22.9953H65.4154L67.4213 12.8204H65.5356L65.0919 14.0372ZM60.4516 20.9921C59.9709 20.9921 59.5365 20.8985 59.1575 20.702C58.797 20.5147 58.5104 20.2433 58.3256 19.8969C58.1314 19.5506 58.0298 19.1387 58.0298 18.6894C58.0298 18.0342 58.1961 17.407 58.5382 16.8173C58.8709 16.2276 59.3331 15.7502 59.897 15.3945C60.4608 15.0482 61.0617 14.8703 61.6995 14.8703C62.4297 14.8703 63.0305 15.0856 63.4742 15.4975C63.9179 15.9187 64.1398 16.4616 64.1398 17.1543C64.1398 18.1559 63.7608 19.0639 63.0213 19.8314C62.2726 20.6083 61.4407 20.9921 60.4516 20.9921Z" fill="white"/>
<path d="M71.9415 8.95435H69.5104L69.0112 11.3975H71.4608L71.9415 8.95435Z" fill="white"/>
<path d="M75.2321 8.95435H72.801L72.3019 11.3975H74.7607L75.2321 8.95435Z" fill="white"/>
<path d="M68.3087 23.0138H70.6381L72.644 12.8389H70.3146L68.3087 23.0138Z" fill="white"/>
<path d="M80.6581 12.605C79.3363 12.605 78.1993 13.0356 77.2842 13.878L77.2103 12.839H75.5187L73.5128 23.0139H75.8422L76.9237 17.5286C77.0993 16.7517 77.4783 16.0965 78.0514 15.5816C78.6153 15.0762 79.2439 14.8141 79.9371 14.8141C81.0556 14.8141 81.5732 15.3195 81.5732 16.4147V16.6019C81.5455 16.7892 81.3144 18.0248 80.3808 22.7518L80.3254 23.0139H82.6547L82.6917 22.8361C82.8026 22.2838 82.9043 21.7222 83.0245 21.1418C83.1354 20.5708 83.2278 20.1122 83.3018 19.7845C83.3757 19.4569 83.4404 19.1012 83.5144 18.7362C83.5883 18.3711 83.6346 18.0903 83.6715 17.9031C83.7085 17.7158 83.7455 17.5193 83.7825 17.304C83.8194 17.0981 83.8472 16.9389 83.8657 16.8453C83.8841 16.7423 83.9026 16.63 83.9119 16.499C83.9211 16.3773 83.9304 16.2837 83.9396 16.2088C83.9488 16.1339 83.9488 16.0403 83.9488 15.9373C83.9488 14.917 83.6531 14.1027 83.08 13.5036C82.4884 12.9139 81.6749 12.605 80.6581 12.605Z" fill="white"/>
<path d="M91.5933 12.605C90.5025 12.605 89.4765 12.8952 88.5521 13.4568C87.6278 14.0184 86.8883 14.786 86.3706 15.722C85.8437 16.6675 85.5757 17.6971 85.5757 18.783C85.5757 20.0654 85.9916 21.1325 86.8051 21.9749C87.6185 22.8174 88.6815 23.2386 89.9571 23.2386C91.0756 23.2386 92.1109 22.939 93.0445 22.34C93.9689 21.7503 94.7453 20.9078 95.3462 19.8501L95.531 19.5224H92.9706L92.9059 19.616C92.5916 20.056 92.1849 20.4023 91.6857 20.6457C91.1866 20.8984 90.6504 21.0201 90.0866 21.0201C89.3656 21.0201 88.7925 20.8236 88.4042 20.4491C88.0067 20.0654 87.8126 19.5412 87.8126 18.8391C87.8126 18.8298 87.8126 18.8204 87.8126 18.8017H95.6789L95.7252 18.6425C95.8823 18.0716 95.9655 17.5474 95.9655 17.07C95.9655 15.7876 95.5588 14.7205 94.7638 13.8687C93.9504 13.0356 92.8874 12.605 91.5933 12.605ZM88.3395 16.7704C88.6261 16.2275 89.0235 15.7689 89.5227 15.4132C90.105 14.9919 90.7706 14.7766 91.4916 14.7766C92.1941 14.7766 92.7302 14.9638 93.1277 15.3663C93.479 15.7127 93.6823 16.1901 93.7378 16.7798H88.3395V16.7704Z" fill="white"/>
<path d="M101.327 15.0106H104.229L104.673 12.8389H101.771L102.214 10.583H101.549L97.4815 14.243L97.426 14.2898L97.2596 15.0012H98.9974C98.9327 15.3475 98.8588 15.7032 98.7941 16.0683C98.7017 16.5176 98.6369 16.8733 98.5815 17.1448C98.526 17.4069 98.4706 17.6783 98.4151 17.9591C98.3596 18.24 98.3134 18.4646 98.2857 18.6144C98.258 18.7641 98.2395 18.9139 98.2025 19.073C98.1748 19.2415 98.147 19.3539 98.1378 19.4287C98.1285 19.5036 98.1101 19.5879 98.1008 19.6815C98.0916 19.7751 98.0823 19.85 98.0731 19.8968C98.0638 19.9623 98.0638 20.0278 98.0638 20.0933C98.0638 20.992 98.3596 21.7221 98.942 22.2369C99.5151 22.7517 100.301 23.0138 101.271 23.0138H102.75L103.194 20.7954H101.789C101.345 20.7954 101.003 20.6924 100.781 20.4958C100.56 20.2993 100.458 20.0278 100.458 19.644C100.458 19.5598 100.523 19.1011 100.948 16.892C101.096 16.1619 101.225 15.5254 101.327 15.0106Z" fill="white"/>
<path d="M112.364 13.3538C111.726 12.8577 110.894 12.605 109.877 12.605C109.073 12.605 108.324 12.7454 107.668 13.0262C107.002 13.307 106.457 13.747 106.05 14.3086C105.644 14.8796 105.44 15.5536 105.44 16.3024C105.44 16.6581 105.514 16.9857 105.653 17.2665C105.791 17.5474 105.949 17.772 106.133 17.9311C106.318 18.0996 106.577 18.2494 106.901 18.3711C107.215 18.4834 107.483 18.577 107.705 18.6238C107.917 18.6706 108.204 18.7362 108.565 18.8017C108.879 18.8578 109.138 18.914 109.332 18.9608C109.517 19.0076 109.72 19.0731 109.923 19.1574C110.108 19.2323 110.238 19.3259 110.312 19.4195C110.386 19.5131 110.422 19.6254 110.422 19.7752C110.422 20.1683 110.247 20.4772 109.868 20.7206C109.47 20.9827 108.971 21.1137 108.389 21.1137C107.917 21.1137 107.52 21.0108 107.196 20.8048C106.901 20.6176 106.753 20.3555 106.753 20.0186C106.753 19.9811 106.762 19.8969 106.781 19.7471L106.827 19.485H104.553L104.525 19.6628C104.488 19.8781 104.47 20.0934 104.47 20.2994C104.47 21.198 104.812 21.9187 105.496 22.4523C106.161 22.9765 107.03 23.2386 108.084 23.2386C108.953 23.2386 109.738 23.0888 110.432 22.7986C111.134 22.4991 111.698 22.0498 112.114 21.4414C112.539 20.8329 112.752 20.1215 112.752 19.3071C112.752 18.9421 112.678 18.6051 112.53 18.3149C112.382 18.0341 112.216 17.8001 112.012 17.6316C111.818 17.4631 111.55 17.3227 111.227 17.1917C110.912 17.07 110.635 16.9764 110.404 16.9296C110.182 16.8828 109.896 16.8266 109.535 16.7611C109.193 16.6956 108.944 16.6487 108.768 16.6113C108.592 16.5739 108.407 16.5083 108.204 16.4335C108.028 16.3679 107.908 16.2837 107.834 16.1901C107.77 16.1058 107.733 15.9935 107.733 15.8625C107.733 15.5161 107.89 15.2447 108.223 15.02C108.574 14.7766 109.045 14.6643 109.618 14.6643C109.84 14.6643 110.044 14.683 110.238 14.7298C110.422 14.7766 110.58 14.8328 110.718 14.917C110.838 14.9919 110.94 15.0949 111.014 15.2166C111.088 15.3383 111.116 15.4787 111.116 15.6284C111.116 15.6565 111.107 15.7314 111.088 15.8812L111.042 16.1339H113.26L113.297 15.9561C113.334 15.7501 113.353 15.5536 113.353 15.3757C113.343 14.552 113.011 13.8687 112.364 13.3538Z" fill="white"/>
</svg>
