<svg width="40" height="40" viewBox="0 0 40 40" fill="none" xmlns="http://www.w3.org/2000/svg">
<path d="M5 21H16.86L13.23 25.36C13.146 25.4611 13.0826 25.5778 13.0437 25.7034C13.0047 25.829 12.9909 25.961 13.003 26.0919C13.0274 26.3564 13.1558 26.6003 13.36 26.77C13.5642 26.9397 13.8275 27.0214 14.0919 26.997C14.3563 26.9726 14.6003 26.8442 14.77 26.64L19.77 20.64C19.8036 20.5923 19.8337 20.5421 19.86 20.49C19.86 20.44 19.91 20.41 19.93 20.36C19.9753 20.2453 19.9991 20.1233 20 20C19.9991 19.8767 19.9753 19.7547 19.93 19.64C19.93 19.59 19.88 19.56 19.86 19.51C19.8337 19.4579 19.8036 19.4077 19.77 19.36L14.77 13.36C14.676 13.2471 14.5582 13.1563 14.4252 13.0941C14.2921 13.0319 14.1469 12.9998 14 13C13.7663 12.9995 13.5399 13.0809 13.36 13.23C13.2587 13.314 13.175 13.4171 13.1137 13.5334C13.0523 13.6497 13.0145 13.7771 13.0025 13.908C12.9904 14.039 13.0043 14.1711 13.0433 14.2967C13.0824 14.4223 13.1458 14.539 13.23 14.64L16.86 19H5C4.73478 19 4.48043 19.1054 4.29289 19.2929C4.10536 19.4804 4 19.7348 4 20C4 20.2652 4.10536 20.5196 4.29289 20.7071C4.48043 20.8946 4.73478 21 5 21Z" fill="white"/>
</svg>
