<svg width="41" height="40" viewBox="0 0 41 40" fill="none" xmlns="http://www.w3.org/2000/svg">
<path d="M31.3107 16.3306C31.1303 16.3302 30.9556 16.4 30.8167 16.5277L26.186 20.8115C26.0284 20.957 25.9293 21.1659 25.9105 21.3925C25.8917 21.6191 25.9547 21.8446 26.0857 22.0196C26.2167 22.1946 26.405 22.3046 26.609 22.3255C26.8131 22.3464 27.0163 22.2764 27.1739 22.131L31.3107 18.2926L35.4474 21.9939C35.5264 22.0651 35.6172 22.1182 35.7147 22.1503C35.8122 22.1823 35.9145 22.1927 36.0156 22.1808C36.1167 22.1688 36.2147 22.1348 36.304 22.0807C36.3932 22.0266 36.4719 21.9534 36.5356 21.8654C36.6063 21.7773 36.6598 21.6739 36.6929 21.5618C36.7259 21.4497 36.7377 21.3312 36.7276 21.2137C36.7174 21.0963 36.6855 20.9825 36.6339 20.8794C36.5823 20.7762 36.512 20.6861 36.4276 20.6145L31.7969 16.4763C31.654 16.3687 31.4828 16.3175 31.3107 16.3306V16.3306Z" fill="#5E7294"/>
</svg>
