<svg width="41" height="41" viewBox="0 0 41 41" fill="none" xmlns="http://www.w3.org/2000/svg">
<path d="M30.4219 24.4037C30.2217 24.4041 30.0277 24.3344 29.8735 24.2067L24.7329 19.9228C24.5579 19.7774 24.4479 19.5684 24.427 19.3419C24.4061 19.1153 24.4761 18.8898 24.6215 18.7148C24.767 18.5398 24.9759 18.4298 25.2025 18.4089C25.429 18.388 25.6546 18.458 25.8296 18.6034L30.4219 22.4417L35.0142 18.7405C35.1018 18.6693 35.2026 18.6162 35.3109 18.5841C35.4191 18.552 35.5326 18.5417 35.6449 18.5536C35.7572 18.5656 35.866 18.5996 35.965 18.6537C36.0641 18.7078 36.1515 18.781 36.2222 18.869C36.3007 18.9571 36.3601 19.0604 36.3968 19.1726C36.4334 19.2847 36.4465 19.4032 36.4353 19.5206C36.424 19.6381 36.3886 19.7519 36.3313 19.855C36.274 19.9581 36.196 20.0483 36.1023 20.1199L30.9616 24.2581C30.8031 24.3656 30.613 24.4169 30.4219 24.4037V24.4037Z" fill="#5E7294"/>
</svg>
