<svg width="40" height="40" viewBox="0 0 40 40" fill="none" xmlns="http://www.w3.org/2000/svg">
<path d="M35 19.0013H23.14L26.77 14.6413C26.9397 14.437 27.0214 14.1738 26.997 13.9093C26.9726 13.6449 26.8442 13.401 26.64 13.2313C26.4358 13.0615 26.1725 12.9799 25.9081 13.0042C25.6437 13.0286 25.3997 13.157 25.23 13.3613L20.23 19.3613C20.1964 19.409 20.1663 19.4591 20.14 19.5113C20.14 19.5613 20.14 19.5913 20.07 19.6413C20.0247 19.7559 20.0009 19.878 20 20.0013C20.0009 20.1245 20.0247 20.2466 20.07 20.3613C20.07 20.4113 20.07 20.4413 20.14 20.4913C20.1663 20.5434 20.1964 20.5935 20.23 20.6413L25.23 26.6413C25.324 26.7541 25.4418 26.8449 25.5748 26.9071C25.7079 26.9694 25.8531 27.0015 26 27.0013C26.2337 27.0017 26.4601 26.9203 26.64 26.7713C26.7413 26.6873 26.825 26.5842 26.8863 26.4679C26.9477 26.3515 26.9855 26.2242 26.9975 26.0932C27.0096 25.9622 26.9957 25.8302 26.9567 25.7046C26.9176 25.579 26.8542 25.4623 26.77 25.3613L23.14 21.0013H35C35.2652 21.0013 35.5196 20.8959 35.7071 20.7084C35.8946 20.5208 36 20.2665 36 20.0013C36 19.736 35.8946 19.4817 35.7071 19.2941C35.5196 19.1066 35.2652 19.0013 35 19.0013Z" fill="white"/>
</svg>
