<svg width="40" height="40" viewBox="0 0 40 40" fill="none" xmlns="http://www.w3.org/2000/svg">
<path d="M20.9439 19.7361L23.8105 16.8761C23.9361 16.7506 24.0066 16.5803 24.0066 16.4028C24.0066 16.2253 23.9361 16.055 23.8105 15.9295C23.685 15.8039 23.5147 15.7334 23.3372 15.7334C23.1597 15.7334 22.9894 15.8039 22.8639 15.9295L20.0039 18.7961L17.1439 15.9295C17.0183 15.8039 16.8481 15.7334 16.6705 15.7334C16.493 15.7334 16.3227 15.8039 16.1972 15.9295C16.0717 16.055 16.0011 16.2253 16.0011 16.4028C16.0011 16.5803 16.0717 16.7506 16.1972 16.8761L19.0639 19.7361L16.1972 22.5961C16.1347 22.6581 16.0851 22.7318 16.0513 22.8131C16.0174 22.8943 16 22.9815 16 23.0695C16 23.1575 16.0174 23.2446 16.0513 23.3258C16.0851 23.4071 16.1347 23.4808 16.1972 23.5428C16.2592 23.6053 16.3329 23.6549 16.4141 23.6887C16.4954 23.7226 16.5825 23.74 16.6705 23.74C16.7585 23.74 16.8457 23.7226 16.9269 23.6887C17.0082 23.6549 17.0819 23.6053 17.1439 23.5428L20.0039 20.6761L22.8639 23.5428C22.9258 23.6053 22.9996 23.6549 23.0808 23.6887C23.1621 23.7226 23.2492 23.74 23.3372 23.74C23.4252 23.74 23.5123 23.7226 23.5936 23.6887C23.6748 23.6549 23.7486 23.6053 23.8105 23.5428C23.873 23.4808 23.9226 23.4071 23.9565 23.3258C23.9903 23.2446 24.0077 23.1575 24.0077 23.0695C24.0077 22.9815 23.9903 22.8943 23.9565 22.8131C23.9226 22.7318 23.873 22.6581 23.8105 22.5961L20.9439 19.7361Z" fill="#273A5A"/>
</svg>
