<svg width="40" height="24" viewBox="0 0 40 24" fill="none" xmlns="http://www.w3.org/2000/svg">
<path d="M23.5 17.25H20C19.5359 17.25 19.0908 17.0656 18.7626 16.7374C18.4344 16.4092 18.25 15.9641 18.25 15.5V12C18.25 11.5359 18.4344 11.0908 18.7626 10.7626C19.0908 10.4344 19.5359 10.25 20 10.25H23.5C23.9641 10.25 24.4092 10.4344 24.7374 10.7626C25.0656 11.0908 25.25 11.5359 25.25 12V15.5C25.25 15.9641 25.0656 16.4092 24.7374 16.7374C24.4092 17.0656 23.9641 17.25 23.5 17.25ZM20 11.4167C19.8453 11.4167 19.6969 11.4781 19.5875 11.5875C19.4781 11.6969 19.4167 11.8453 19.4167 12V15.5C19.4167 15.6547 19.4781 15.8031 19.5875 15.9125C19.6969 16.0219 19.8453 16.0833 20 16.0833H23.5C23.6547 16.0833 23.8031 16.0219 23.9125 15.9125C24.0219 15.8031 24.0833 15.6547 24.0833 15.5V12C24.0833 11.8453 24.0219 11.6969 23.9125 11.5875C23.8031 11.4781 23.6547 11.4167 23.5 11.4167H20Z" fill="#5E7294"/>
<path d="M18.6758 13.75H16.3075C15.8949 13.7485 15.4996 13.5839 15.2079 13.2921C14.9161 13.0004 14.7515 12.6051 14.75 12.1925V8.3075C14.7515 7.8949 14.9161 7.49963 15.2079 7.20788C15.4996 6.91612 15.8949 6.75154 16.3075 6.75H20.1925C20.6051 6.75154 21.0004 6.91612 21.2921 7.20788C21.5839 7.49963 21.7485 7.8949 21.75 8.3075V10.4833H20.5833V8.3075C20.5833 8.20384 20.5422 8.10443 20.4689 8.03114C20.3956 7.95784 20.2962 7.91667 20.1925 7.91667H16.3075C16.2038 7.91667 16.1044 7.95784 16.0311 8.03114C15.9578 8.10443 15.9167 8.20384 15.9167 8.3075V12.1925C15.9167 12.2962 15.9578 12.3956 16.0311 12.4689C16.1044 12.5422 16.2038 12.5833 16.3075 12.5833H18.6758V13.75Z" fill="#5E7294"/>
</svg>
