<svg width="26" height="26" viewBox="0 0 26 26" fill="none" xmlns="http://www.w3.org/2000/svg">
<circle cx="13" cy="13" r="13" fill="white"/>
<path d="M15.8887 7.81312C15.8887 7.72606 15.8541 7.64256 15.7926 7.58099C15.731 7.51943 15.6475 7.48484 15.5604 7.48484H13.919C13.0925 7.44367 12.2833 7.73131 11.6681 8.28492C11.053 8.83853 10.682 9.61309 10.6362 10.4394V12.2121H8.99479C8.90772 12.2121 8.82422 12.2467 8.76266 12.3083C8.70109 12.3698 8.6665 12.4533 8.6665 12.5404V14.2475C8.6665 14.3345 8.70109 14.418 8.76266 14.4796C8.82422 14.5412 8.90772 14.5757 8.99479 14.5757H10.6362V18.9747C10.6362 19.0618 10.6708 19.1453 10.7324 19.2069C10.7939 19.2684 10.8774 19.303 10.9645 19.303H12.9342C13.0212 19.303 13.1047 19.2684 13.1663 19.2069C13.2279 19.1453 13.2625 19.0618 13.2625 18.9747V14.5757H14.9827C15.0557 14.5768 15.1269 14.5535 15.1852 14.5095C15.2435 14.4655 15.2854 14.4033 15.3044 14.3328L15.7771 12.6257C15.7902 12.5772 15.7919 12.5264 15.7822 12.4771C15.7726 12.4278 15.7517 12.3814 15.7212 12.3414C15.6908 12.3015 15.6516 12.269 15.6066 12.2466C15.5617 12.2242 15.5122 12.2124 15.462 12.2121H13.2625V10.4394C13.2788 10.2769 13.3551 10.1263 13.4765 10.017C13.5979 9.90775 13.7557 9.84766 13.919 9.84848H15.5604C15.6475 9.84848 15.731 9.81389 15.7926 9.75232C15.8541 9.69076 15.8887 9.60726 15.8887 9.52019V7.81312Z" fill="#273A5A"/>
</svg>
