<svg width="242" height="84" viewBox="0 0 242 84" fill="none" xmlns="http://www.w3.org/2000/svg">
<path fill-rule="evenodd" clip-rule="evenodd" d="M29.8482 0L0 30.6601V83.4493L64.44 83.3903L94.3689 52.9256L94.3977 1.12593V0H29.8482Z" fill="#FCB614"/>
<path fill-rule="evenodd" clip-rule="evenodd" d="M178.292 39.2889L168.87 57.4325V38.2327H156.424V75.9724H168.024C168.738 75.9724 169.396 75.5795 169.748 74.9442L179.539 56.786V75.9724H191.973V38.2327H180.031C179.306 38.2327 178.639 38.6375 178.292 39.2889ZM173.983 34.6812C167.683 34.6812 162.557 29.7887 162.557 23.4917H170.253C170.253 25.787 171.321 27.8211 173.983 27.8211C176.739 27.8211 177.712 25.787 177.712 23.4917H185.407C185.407 29.7887 180.282 34.6812 173.983 34.6812ZM116.634 38.2326H106.94H94.2504H84.4035V49.5111H94.1573V75.9724H106.88V49.5111H116.634V38.2326ZM141.951 75.9726H154.04L140.804 39.3094C140.57 38.6622 139.967 38.2328 139.292 38.2328H127.314C126.639 38.2328 126.037 38.6622 125.802 39.3094L112.566 75.9726H124.655C125.014 75.9726 125.331 75.7365 125.443 75.3884L126.786 71.2005H139.82L141.163 75.3884C141.275 75.7372 141.592 75.9726 141.951 75.9726ZM129.708 61.7494L133.303 50.5424L136.898 61.7494H129.708ZM228.523 39.1719L219.702 54.4751L210.881 39.1719C210.545 38.5898 209.934 38.2326 209.273 38.2326H197.65V75.9724H210.372V58.1517L216.033 67.6777C216.213 67.9796 216.533 68.1645 216.878 68.1645H222.528C222.874 68.1645 223.195 67.9796 223.374 67.6777L229.032 58.1517V75.9724H241.754V38.2326H230.131C229.47 38.2326 228.858 38.5898 228.523 39.1719ZM25.7454 38.2165H38.0493V51.6699H48.2317V38.2165H60.5356V75.9731H48.2317V62.5197H38.0493V75.9731H25.7454V38.2165ZM7.50195 75.9727H20.6542V38.2162H7.50195V75.9727Z" fill="#221F20"/>
</svg>
