<svg width="1920" height="712" viewBox="0 0 1920 712" fill="none" xmlns="http://www.w3.org/2000/svg">
<mask id="mask0_128_1432" style="mask-type:alpha" maskUnits="userSpaceOnUse" x="0" y="-348" width="1920" height="1060">
<rect y="-348" width="1920" height="1060" fill="#1C3CFF"/>
</mask>
<g mask="url(#mask0_128_1432)">
<path fill-rule="evenodd" clip-rule="evenodd" d="M201.858 172.506C139.073 94.4755 70.5489 29.4741 -23.1163 11.9276L-20.8838 0.137513C77.2275 18.5168 148.075 86.5034 211.219 164.98C232.09 190.919 252.29 218.233 272.373 245.389C282.644 259.277 292.885 273.124 303.169 286.725C333.678 327.072 364.744 365.498 398.866 397.642C505.822 498.4 616.999 541.409 742.562 547.388C868.471 553.383 1009.08 522.162 1174.83 473.776C1444.77 394.972 1748.14 474.061 1995.49 769.968L1986.27 777.667C1741.63 485.003 1443.05 407.967 1178.17 485.289C1012.31 533.71 870.034 565.467 741.969 559.37C613.558 553.255 499.666 509.1 390.623 406.377C355.745 373.521 324.19 334.44 293.586 293.967C283.134 280.145 272.813 266.187 262.505 252.249C242.519 225.222 222.586 198.268 201.858 172.506Z" fill="#3984FC"/>
<path fill-rule="evenodd" clip-rule="evenodd" d="M796.533 489.597C719.744 499.701 640.171 510.172 556.407 516.016C374.363 528.717 252.343 466.898 159.19 396.273C124.947 370.311 94.4854 343.058 66.5236 318.041C56.6072 309.169 47.0053 300.578 37.6606 292.426C1.68289 261.041 -30.3133 236.315 -62.6229 225.228L-58.7054 213.882C-23.9218 225.819 9.65671 252.059 45.5649 283.384C55.119 291.719 64.8514 300.426 74.8474 309.369C102.717 334.303 132.636 361.07 166.457 386.712C257.978 456.1 377.198 516.496 555.592 504.05C638.952 498.234 718.043 487.828 794.776 477.732C816.793 474.835 838.617 471.963 860.291 469.233C957.377 457.004 1051.36 447.63 1145.52 451.774C1334.26 460.082 1523.09 522.682 1740.08 723.597L1731.92 732.403C1516.9 533.318 1330.74 471.935 1144.97 463.758C1051.89 459.661 958.747 468.92 861.771 481.134C840.231 483.848 818.496 486.707 796.533 489.597Z" fill="#FFE90E"/>
</g>
</svg>
