<svg width="252" height="90" viewBox="0 0 252 90" fill="none" xmlns="http://www.w3.org/2000/svg">
<path fill-rule="evenodd" clip-rule="evenodd" d="M110.313 15.2676C110.313 15.2676 110.313 15.2676 115.613 15.2676C117.545 15.2676 118.518 16.2218 118.518 18.376C118.518 18.376 118.518 18.376 118.518 26.0097C118.518 26.0097 118.518 26.0097 128.901 26.0097C128.901 26.0097 128.901 26.0097 128.901 18.376C128.901 16.2218 129.859 15.2676 132.037 15.2676C132.037 15.2676 132.037 15.2676 137.105 15.2676C137.105 15.2676 137.105 15.2676 137.105 20.2844C137.105 20.2844 137.105 20.2844 134.942 20.2844L134.695 20.5302C134.695 20.5302 134.695 20.5302 134.695 42.0146C134.695 42.0146 134.695 42.0146 128.901 42.0146C128.901 42.0146 128.901 42.0146 128.901 31.2724C128.901 31.2724 128.901 31.2724 118.518 31.2724C118.518 31.2724 118.518 31.2724 118.518 42.0146C118.518 42.0146 118.518 42.0146 112.724 42.0146C112.724 42.0146 112.724 42.0146 112.724 20.5302C112.724 20.5302 112.724 20.2844 112.477 20.2844C112.477 20.2844 112.477 20.2844 110.313 20.2844C110.313 20.2844 110.313 20.2844 110.313 15.2676V15.2676Z" fill="#ED1C24"/>
<path fill-rule="evenodd" clip-rule="evenodd" d="M152.309 14.7903L152.44 14.8047V20.3132L152.309 20.2843C147.967 20.2843 144.584 23.8698 144.584 28.4096C144.584 33.1806 147.967 36.9975 152.309 36.9975L152.44 36.9686V42.477L152.309 42.4915C144.584 42.4915 138.311 36.2891 138.311 28.4096C138.311 20.7614 144.584 14.7903 152.309 14.7903Z" fill="#ED1C24"/>
<path fill-rule="evenodd" clip-rule="evenodd" d="M152.44 14.8047L155.126 15.0649C161.501 16.3083 166.308 21.7155 166.308 28.4095C166.308 35.2914 161.501 40.9155 155.126 42.2023L152.44 42.477V36.9686L155.388 36.3324C158.234 35.0312 160.282 31.9806 160.282 28.4095C160.282 24.9975 158.234 22.1348 155.388 20.9204L152.44 20.3131V14.8047V14.8047Z" fill="#ED1C24"/>
<path fill-rule="evenodd" clip-rule="evenodd" d="M167.514 15.2676C167.514 15.2676 167.514 15.2676 175.602 15.2676H179.465V20.2844H179.102C178.623 20.2844 177.65 20.2844 175.718 20.2844C175.718 20.2844 175.718 20.2844 175.718 25.7784C175.718 25.7784 175.718 25.7784 177.359 25.7784H179.465V30.5495H178.231C177.621 30.5495 176.807 30.5495 175.718 30.5495C175.718 30.5495 175.718 30.5495 175.718 36.5206C175.718 36.7664 175.718 36.7664 175.965 36.7664C175.965 36.7664 175.965 36.7664 177.693 36.7664H179.465V42.0146H178.957C178.085 42.0146 176.328 42.0146 172.829 42.0146C170.897 42.0146 169.939 41.0604 169.939 38.9061V20.2844C169.939 20.2844 169.939 20.2844 167.514 20.2844C167.514 20.2844 167.514 20.2844 167.514 15.2676V15.2676Z" fill="#ED1C24"/>
<path fill-rule="evenodd" clip-rule="evenodd" d="M179.465 15.2676H179.581C184.896 15.2676 188.033 18.1302 188.033 22.4387C188.033 25.0555 186.827 26.7326 185.622 27.9326C187.8 28.8869 189.238 31.2724 189.238 33.8893C189.238 38.9061 185.375 42.0146 179.828 42.0146C179.828 42.0146 179.828 42.0146 179.726 42.0146H179.465V36.7664H180.06C181.992 36.7664 183.211 35.5664 183.211 33.6579C183.211 31.7495 181.992 30.5495 180.06 30.5495C180.06 30.5495 180.06 30.5495 179.523 30.5495H179.465V25.7784H179.581C181.28 25.7784 182.238 24.5784 182.238 22.9158C182.238 21.2387 181.28 20.2844 179.581 20.2844C179.581 20.2844 179.581 20.2844 179.523 20.2844H179.465V15.2676V15.2676Z" fill="#ED1C24"/>
<path fill-rule="evenodd" clip-rule="evenodd" d="M200.347 15.2676C200.347 15.2676 200.347 15.2676 202.786 15.2676H203.237V22.9158C203.004 23.3929 202.757 24.1013 202.757 24.8242C202.757 24.8242 202.757 24.8242 200.826 30.3182C200.826 30.3182 200.826 30.3182 202.874 30.3182H203.237V35.3206H201.93C201.189 35.3206 200.347 35.3206 199.388 35.3206C199.388 35.3206 199.388 35.3206 197.689 39.629C197.21 41.2917 196.252 42.0146 194.32 42.0146C194.32 42.0146 194.32 42.0146 190.69 42.0146C190.69 42.0146 190.69 42.0146 190.69 36.7664C190.69 36.7664 190.69 36.7664 191.895 36.7664C192.389 36.7664 192.389 36.7664 192.621 36.5206C192.621 36.5206 192.621 36.5206 200.347 15.2676Z" fill="#ED1C24"/>
<path fill-rule="evenodd" clip-rule="evenodd" d="M203.236 15.2676H206.141C206.141 15.2676 206.141 15.2676 213.866 36.5206C214.098 36.7664 214.098 36.7664 214.578 36.7664C214.578 36.7664 214.578 36.7664 215.551 36.7664C215.551 36.7664 215.551 36.7664 215.551 42.0146C215.551 42.0146 215.551 42.0146 212.167 42.0146C210.236 42.0146 209.277 41.2917 208.784 39.3832C208.784 39.3832 208.784 39.3832 207.099 35.3206C207.099 35.3206 207.099 35.3206 203.846 35.3206H203.236V30.3182H205.647C205.647 30.3182 205.647 30.3182 203.73 24.8242C203.73 24.1013 203.483 23.3929 203.236 22.9158V15.2676V15.2676Z" fill="#ED1C24"/>
<path fill-rule="evenodd" clip-rule="evenodd" d="M110.313 49.6484C110.313 49.6484 110.313 49.6484 131.311 49.6484C133.243 49.6484 134.448 50.6027 134.448 52.7569C134.448 52.7569 134.448 52.7569 134.448 70.9015C134.448 71.1328 134.448 71.1328 134.695 71.1328C134.695 71.1328 134.695 71.1328 136.626 71.1328C136.626 71.1328 136.626 71.1328 136.626 76.3954C136.626 76.3954 136.626 76.3954 131.558 76.3954C129.38 76.3954 128.421 75.4412 128.421 73.287C128.421 73.287 128.421 73.287 128.421 54.9111C128.421 54.9111 128.421 54.6653 128.175 54.6653C128.175 54.6653 128.175 54.6653 118.518 54.6653C118.518 54.6653 118.518 54.6653 118.518 76.3954C118.518 76.3954 118.518 76.3954 112.724 76.3954C112.724 76.3954 112.724 76.3954 112.724 54.6653C112.724 54.6653 112.724 54.6653 110.313 54.6653C110.313 54.6653 110.313 54.6653 110.313 49.6484V49.6484Z" fill="#ED1C24"/>
<path fill-rule="evenodd" clip-rule="evenodd" d="M151.83 49.1709L151.947 49.1854V54.6938L151.83 54.6649C147.474 54.6649 144.105 58.2504 144.105 62.7902C144.105 67.5613 147.474 71.3781 151.83 71.3781L151.947 71.3492V76.8576L151.83 76.8721C144.105 76.8721 138.064 70.6552 138.064 62.7902C138.064 55.142 144.105 49.1709 151.83 49.1709V49.1709Z" fill="#ED1C24"/>
<path fill-rule="evenodd" clip-rule="evenodd" d="M151.946 49.1855L154.72 49.4458C161.211 50.6892 165.829 56.0964 165.829 62.7904C165.829 69.6723 161.211 75.2964 154.72 76.5831L151.946 76.8578V71.3494L155.01 70.7133C157.9 69.4121 159.802 66.3615 159.802 62.7904C159.802 59.3783 157.9 56.5157 155.01 55.3012L151.946 54.694V49.1855V49.1855Z" fill="#ED1C24"/>
<path fill-rule="evenodd" clip-rule="evenodd" d="M167.034 49.6484C167.034 49.6484 167.034 49.6484 172.349 49.6484C174.28 49.6484 175.239 50.6027 175.239 52.7569C175.239 52.7569 175.239 52.7569 175.239 70.9015C175.239 71.1328 175.239 71.1328 175.486 71.1328C175.486 71.1328 175.486 71.1328 182.485 71.1328C182.485 71.1328 182.485 71.1328 182.485 49.6484C182.485 49.6484 182.485 49.6484 188.279 49.6484C188.279 49.6484 188.279 49.6484 188.279 71.1328C188.279 71.1328 188.279 71.1328 195.279 71.1328C195.525 71.1328 195.525 71.1328 195.525 70.9015C195.525 70.9015 195.525 70.9015 195.525 52.7569C195.525 50.6027 196.484 49.6484 198.415 49.6484C198.415 49.6484 198.415 49.6484 203.73 49.6484C203.73 49.6484 203.73 49.6484 203.73 54.6653C203.73 54.6653 203.73 54.6653 201.552 54.6653C201.305 54.6653 201.305 54.9111 201.305 54.9111C201.305 54.9111 201.305 54.9111 201.305 73.287C201.305 75.4412 200.347 76.3954 198.415 76.3954C198.415 76.3954 198.415 76.3954 172.581 76.3954C170.418 76.3954 169.445 75.4412 169.445 73.287C169.445 73.287 169.445 73.287 169.445 54.9111C169.445 54.9111 169.445 54.6653 169.212 54.6653C169.212 54.6653 169.212 54.6653 167.034 54.6653C167.034 54.6653 167.034 54.6653 167.034 49.6484V49.6484Z" fill="#ED1C24"/>
<path fill-rule="evenodd" clip-rule="evenodd" d="M208.304 49.6484C208.304 49.6484 208.304 49.6484 226.413 49.6484C228.591 49.6484 229.317 50.6027 229.317 52.5111C229.317 52.5111 229.317 52.5111 229.317 57.0508H224.002C224.002 57.0508 224.002 57.0508 224.002 54.9111C224.002 54.6653 224.002 54.6653 223.755 54.6653C223.755 54.6653 223.755 54.6653 220.386 54.6653C220.386 54.6653 220.386 54.6653 220.386 76.3954C220.386 76.3954 220.386 76.3954 214.578 76.3954C214.578 76.3954 214.578 76.3954 214.578 54.6653C214.578 54.6653 214.578 54.6653 211.209 54.6653C210.962 54.6653 210.962 54.6653 210.962 54.9111C210.962 54.9111 210.962 54.9111 210.962 57.0508C210.962 57.0508 210.962 57.0508 205.647 57.0508C205.647 57.0508 205.647 57.0508 205.647 52.5111C205.647 50.6027 206.373 49.6484 208.304 49.6484V49.6484Z" fill="#ED1C24"/>
<path fill-rule="evenodd" clip-rule="evenodd" d="M236.796 49.6484C236.796 49.6484 236.796 49.6484 239.236 49.6484H239.686V57.2966C239.439 57.7737 239.207 58.4822 239.207 59.2051C239.207 59.2051 239.207 59.2051 237.275 64.699C237.275 64.699 237.275 64.699 239.308 64.699H239.686V69.7014H238.379C237.638 69.7014 236.796 69.7014 235.823 69.7014C235.823 69.7014 235.823 69.7014 234.139 73.7641C233.659 75.6725 232.686 76.3954 230.755 76.3954C230.755 76.3954 230.755 76.3954 227.139 76.3954C227.139 76.3954 227.139 76.3954 227.139 71.1328C227.139 71.1328 227.139 71.1328 228.344 71.1328C228.838 71.1328 228.838 71.1328 229.071 70.9015C229.071 70.9015 229.071 70.9015 236.796 49.6484V49.6484Z" fill="#ED1C24"/>
<path fill-rule="evenodd" clip-rule="evenodd" d="M239.686 49.6484H242.575C242.575 49.6484 242.575 49.6484 250.315 70.9015C250.548 71.1328 250.548 71.1328 251.041 71.1328H252C252 71.1328 252 71.1328 252 76.3954C252 76.3954 252 76.3954 248.616 76.3954C246.685 76.3954 245.727 75.6725 245.233 73.7641C245.233 73.7641 245.233 73.7641 243.548 69.7014C243.548 69.7014 243.548 69.7014 240.295 69.7014H239.686V64.699H242.096C242.096 64.699 242.096 64.699 240.165 59.2051C240.165 58.4822 239.932 57.7737 239.686 57.2966V49.6484V49.6484Z" fill="#ED1C24"/>
<path fill-rule="evenodd" clip-rule="evenodd" d="M73.1089 26.6458C73.3848 26.559 73.7478 26.7325 74.1108 27.2096C74.1108 27.2096 74.1108 27.2096 90.5202 43.2C91.4786 44.1542 91.4786 45.6 90.5202 46.3084C90.5202 46.3084 90.5202 46.3084 74.1108 62.5446C73.7478 63.0217 73.3848 63.1373 73.1089 62.9927C72.833 62.8482 72.6587 62.4289 72.6587 61.8217V27.6867C72.6587 27.094 72.833 26.7325 73.1089 26.6458Z" fill="#ED1C24"/>
<path fill-rule="evenodd" clip-rule="evenodd" d="M45.0384 0H46.2001L47.3183 0.462652C47.3183 0.462652 47.3183 0.462651 64.2069 17.1759C64.933 18.1301 64.6861 18.853 63.4808 18.853C63.4808 18.853 63.4808 18.853 56.4814 18.853C55.2761 18.853 54.3177 19.8072 54.3177 21.0072C54.3177 21.0072 54.3177 21.0072 54.3177 33.412C54.3177 34.612 53.3447 35.5663 51.8926 35.5663C51.8926 35.5663 51.8926 35.5663 39.5928 35.5663C38.3875 35.5663 37.4146 34.612 37.4146 33.412C37.4146 33.412 37.4146 33.412 37.4146 21.0072C37.4146 19.8072 36.4562 18.853 35.2363 18.853H27.7577C26.5524 18.853 26.3056 18.1301 27.0317 17.1759C27.0317 17.1759 27.0317 17.1759 43.9348 0.462652L45.0384 0V0Z" fill="#ED1C24"/>
<path fill-rule="evenodd" clip-rule="evenodd" d="M18.5803 26.2843C18.8853 26.4289 19.0741 26.8482 19.0741 27.4554V62.2988C19.0741 62.906 18.8853 63.2674 18.5803 63.3831C18.2899 63.4988 17.8688 63.3831 17.3751 63.0217C17.3751 63.0217 17.3751 63.0217 0.718817 46.3084C-0.239606 45.6 -0.239606 44.1542 0.718817 43.2C0.718817 43.2 0.718819 43.2 17.3751 26.7325C17.8688 26.2554 18.2899 26.1397 18.5803 26.2843Z" fill="#ED1C24"/>
<path fill-rule="evenodd" clip-rule="evenodd" d="M39.5931 53.7109C39.5931 53.7109 39.5931 53.7109 51.8929 53.7109C53.3451 53.7109 54.318 54.6652 54.318 55.8652C54.318 55.8652 54.318 55.8652 54.318 68.9929C54.318 70.4242 55.2764 71.3784 56.4817 71.3784H63.0019C64.2072 71.3784 64.6864 72.0868 63.728 72.8097C63.728 72.8097 63.728 72.8097 47.3186 89.2772C46.8249 89.7543 46.2295 90.0001 45.6196 90.0001C45.0242 90.0001 44.4143 89.7543 43.9351 89.2772C43.9351 89.2772 43.9351 89.2772 27.5257 72.8097C26.5528 72.0868 27.032 71.3784 28.2373 71.3784C28.2373 71.3784 28.2373 71.3784 35.2367 71.3784C36.4565 71.3784 37.4149 70.4242 37.4149 68.9929C37.4149 68.9929 37.4149 68.9929 37.4149 55.8652C37.4149 54.6652 38.3878 53.7109 39.5931 53.7109V53.7109Z" fill="#ED1C24"/>
</svg>
