<svg width="715" height="604" viewBox="0 0 715 604" fill="none" xmlns="http://www.w3.org/2000/svg">
<path d="M466.713 321.541C437.155 308.514 414.1 288.973 397.547 262.918C380.995 236.863 372.719 206.07 372.719 170.541C372.719 119.616 388.68 78.1646 420.603 46.1882C452.525 15.396 493.315 -4.16549e-05 542.973 -4.5996e-05C592.63 -5.03372e-05 634.011 15.9881 667.116 47.9646C699.039 79.9411 715 120.8 715 170.541C715 194.227 712.044 217.914 706.133 241.6C700.221 265.286 687.216 300.816 667.116 348.188L564.254 604L388.68 604L466.713 321.541ZM93.9945 321.541C64.4365 308.514 41.3812 288.973 24.8288 262.918C8.27627 236.863 8.72822e-05 206.07 8.41761e-05 170.541C7.97241e-05 119.616 15.9613 78.1647 47.8839 46.1882C79.8066 15.396 120.597 -9.07076e-06 170.254 -1.3412e-05C219.911 -1.77531e-05 261.293 15.9881 294.398 47.9646C326.32 79.9411 342.281 120.8 342.281 170.541C342.281 194.227 339.326 217.914 333.414 241.6C327.503 265.286 314.497 300.816 294.398 348.188L191.536 604L15.9614 604L93.9945 321.541Z" fill="#2F69FF"/>
</svg>
